<mxfile host="65bd71144e">
    <diagram id="FNdwcFB9kMh2hSUywwg8" name="Page-1">
        <mxGraphModel dx="746" dy="563" grid="1" gridSize="10" guides="1" tooltips="1" connect="1" arrows="1" fold="1" page="1" pageScale="1" pageWidth="850" pageHeight="1100" math="0" shadow="0">
            <root>
                <mxCell id="0"/>
                <mxCell id="1" parent="0"/>
                <mxCell id="10" value="" style="edgeStyle=none;html=1;" parent="1" source="5" target="9" edge="1">
                    <mxGeometry relative="1" as="geometry"/>
                </mxCell>
                <mxCell id="5" value="" style="whiteSpace=wrap;html=1;aspect=fixed;" parent="1" vertex="1">
                    <mxGeometry x="270" y="75" width="90" height="90" as="geometry"/>
                </mxCell>
                <mxCell id="7" value="C.P.U" style="text;html=1;align=center;verticalAlign=middle;whiteSpace=wrap;rounded=0;" parent="1" vertex="1">
                    <mxGeometry x="285" y="90" width="60" height="30" as="geometry"/>
                </mxCell>
                <mxCell id="9" value="Output" style="whiteSpace=wrap;html=1;" parent="1" vertex="1">
                    <mxGeometry x="410" y="95" width="120" height="60" as="geometry"/>
                </mxCell>
                <mxCell id="27" style="edgeStyle=none;html=1;entryX=0;entryY=0.25;entryDx=0;entryDy=0;" parent="1" source="24" target="5" edge="1">
                    <mxGeometry relative="1" as="geometry"/>
                </mxCell>
                <mxCell id="24" value="Data/Input" style="rounded=0;whiteSpace=wrap;html=1;" parent="1" vertex="1">
                    <mxGeometry x="70" y="60" width="120" height="60" as="geometry"/>
                </mxCell>
                <mxCell id="25" value="Program" style="whiteSpace=wrap;html=1;" parent="1" vertex="1">
                    <mxGeometry x="70" y="140" width="120" height="60" as="geometry"/>
                </mxCell>
                <mxCell id="28" style="edgeStyle=none;html=1;entryX=0.018;entryY=0.649;entryDx=0;entryDy=0;entryPerimeter=0;" parent="1" source="25" target="5" edge="1">
                    <mxGeometry relative="1" as="geometry"/>
                </mxCell>
                <mxCell id="38" value="Traditional CS" style="text;html=1;align=center;verticalAlign=middle;whiteSpace=wrap;rounded=0;" parent="1" vertex="1">
                    <mxGeometry x="185" y="230" width="175" height="30" as="geometry"/>
                </mxCell>
            </root>
        </mxGraphModel>
    </diagram>
    <diagram id="eWjczipmWSDm2g_vQ2EP" name="Page-2">
        <mxGraphModel dx="746" dy="563" grid="1" gridSize="10" guides="1" tooltips="1" connect="1" arrows="1" fold="1" page="1" pageScale="1" pageWidth="850" pageHeight="1100" math="0" shadow="0">
            <root>
                <mxCell id="0"/>
                <mxCell id="1" parent="0"/>
                <mxCell id="25mWYpt98U0ihyWrUaGy-1" value="" style="edgeStyle=none;html=1;" parent="1" source="25mWYpt98U0ihyWrUaGy-2" target="25mWYpt98U0ihyWrUaGy-7" edge="1">
                    <mxGeometry relative="1" as="geometry"/>
                </mxCell>
                <mxCell id="25mWYpt98U0ihyWrUaGy-2" value="" style="whiteSpace=wrap;html=1;aspect=fixed;" parent="1" vertex="1">
                    <mxGeometry x="467.5" y="90" width="95" height="95" as="geometry"/>
                </mxCell>
                <mxCell id="25mWYpt98U0ihyWrUaGy-3" style="edgeStyle=none;html=1;entryX=0.048;entryY=0.429;entryDx=0;entryDy=0;entryPerimeter=0;" parent="1" target="25mWYpt98U0ihyWrUaGy-2" edge="1">
                    <mxGeometry relative="1" as="geometry">
                        <mxPoint x="380" y="122.18710392902403" as="sourcePoint"/>
                    </mxGeometry>
                </mxCell>
                <mxCell id="25mWYpt98U0ihyWrUaGy-4" value="CPU" style="text;html=1;align=center;verticalAlign=middle;whiteSpace=wrap;rounded=0;" parent="1" vertex="1">
                    <mxGeometry x="485" y="120" width="60" height="30" as="geometry"/>
                </mxCell>
                <mxCell id="25mWYpt98U0ihyWrUaGy-5" value="Output" style="whiteSpace=wrap;html=1;" parent="1" vertex="1">
                    <mxGeometry x="280" y="165" width="120" height="60" as="geometry"/>
                </mxCell>
                <mxCell id="25mWYpt98U0ihyWrUaGy-6" style="edgeStyle=none;html=1;entryX=0.01;entryY=0.69;entryDx=0;entryDy=0;entryPerimeter=0;" parent="1" source="25mWYpt98U0ihyWrUaGy-5" target="25mWYpt98U0ihyWrUaGy-2" edge="1">
                    <mxGeometry relative="1" as="geometry"/>
                </mxCell>
                <mxCell id="25mWYpt98U0ihyWrUaGy-7" value="Program" style="whiteSpace=wrap;html=1;" parent="1" vertex="1">
                    <mxGeometry x="620" y="105" width="120" height="60" as="geometry"/>
                </mxCell>
                <mxCell id="25mWYpt98U0ihyWrUaGy-8" value="Data/Input" style="rounded=0;whiteSpace=wrap;html=1;" parent="1" vertex="1">
                    <mxGeometry x="280" y="90" width="120" height="60" as="geometry"/>
                </mxCell>
                <mxCell id="25mWYpt98U0ihyWrUaGy-9" value="Machine Learning" style="text;html=1;align=center;verticalAlign=middle;whiteSpace=wrap;rounded=0;" parent="1" vertex="1">
                    <mxGeometry x="355" y="260" width="175" height="30" as="geometry"/>
                </mxCell>
            </root>
        </mxGraphModel>
    </diagram>
    <diagram id="K9p8apL61jLtTT0KRlUw" name="Page-3">
        <mxGraphModel dx="746" dy="563" grid="1" gridSize="10" guides="1" tooltips="1" connect="1" arrows="1" fold="1" page="1" pageScale="1" pageWidth="850" pageHeight="1100" math="0" shadow="0">
            <root>
                <mxCell id="0"/>
                <mxCell id="1" parent="0"/>
                <mxCell id="1bvX-3xgdaYKTKuJ127w-1" value="" style="edgeStyle=none;html=1;" parent="1" source="1bvX-3xgdaYKTKuJ127w-2" target="1bvX-3xgdaYKTKuJ127w-8" edge="1">
                    <mxGeometry relative="1" as="geometry"/>
                </mxCell>
                <mxCell id="1bvX-3xgdaYKTKuJ127w-2" value="" style="whiteSpace=wrap;html=1;aspect=fixed;" parent="1" vertex="1">
                    <mxGeometry x="197.5" y="120" width="95" height="95" as="geometry"/>
                </mxCell>
                <mxCell id="1bvX-3xgdaYKTKuJ127w-3" style="edgeStyle=none;html=1;entryX=0.048;entryY=0.429;entryDx=0;entryDy=0;entryPerimeter=0;" parent="1" target="1bvX-3xgdaYKTKuJ127w-2" edge="1">
                    <mxGeometry relative="1" as="geometry">
                        <mxPoint x="110" y="152.18710392902403" as="sourcePoint"/>
                    </mxGeometry>
                </mxCell>
                <mxCell id="1bvX-3xgdaYKTKuJ127w-4" value="CPU" style="text;html=1;align=center;verticalAlign=middle;whiteSpace=wrap;rounded=0;" parent="1" vertex="1">
                    <mxGeometry x="215" y="150" width="60" height="30" as="geometry"/>
                </mxCell>
                <mxCell id="1bvX-3xgdaYKTKuJ127w-5" value="Output" style="whiteSpace=wrap;html=1;" parent="1" vertex="1">
                    <mxGeometry x="10" y="195" width="120" height="60" as="geometry"/>
                </mxCell>
                <mxCell id="1bvX-3xgdaYKTKuJ127w-6" style="edgeStyle=none;html=1;entryX=0.01;entryY=0.69;entryDx=0;entryDy=0;entryPerimeter=0;" parent="1" source="1bvX-3xgdaYKTKuJ127w-5" target="1bvX-3xgdaYKTKuJ127w-2" edge="1">
                    <mxGeometry relative="1" as="geometry"/>
                </mxCell>
                <mxCell id="1bvX-3xgdaYKTKuJ127w-7" style="edgeStyle=none;html=1;entryX=0;entryY=0.5;entryDx=0;entryDy=0;" parent="1" source="1bvX-3xgdaYKTKuJ127w-8" target="1bvX-3xgdaYKTKuJ127w-11" edge="1">
                    <mxGeometry relative="1" as="geometry"/>
                </mxCell>
                <mxCell id="1bvX-3xgdaYKTKuJ127w-8" value="Program" style="whiteSpace=wrap;html=1;" parent="1" vertex="1">
                    <mxGeometry x="350" y="110" width="120" height="60" as="geometry"/>
                </mxCell>
                <mxCell id="1bvX-3xgdaYKTKuJ127w-9" value="Data/Input" style="rounded=0;whiteSpace=wrap;html=1;" parent="1" vertex="1">
                    <mxGeometry x="10" y="120" width="120" height="60" as="geometry"/>
                </mxCell>
                <mxCell id="1bvX-3xgdaYKTKuJ127w-10" value="" style="edgeStyle=none;html=1;" parent="1" source="1bvX-3xgdaYKTKuJ127w-11" target="1bvX-3xgdaYKTKuJ127w-13" edge="1">
                    <mxGeometry relative="1" as="geometry"/>
                </mxCell>
                <mxCell id="1bvX-3xgdaYKTKuJ127w-11" value="" style="whiteSpace=wrap;html=1;aspect=fixed;" parent="1" vertex="1">
                    <mxGeometry x="545" y="115" width="90" height="90" as="geometry"/>
                </mxCell>
                <mxCell id="1bvX-3xgdaYKTKuJ127w-12" value="C.P.U" style="text;html=1;align=center;verticalAlign=middle;whiteSpace=wrap;rounded=0;" parent="1" vertex="1">
                    <mxGeometry x="560" y="130" width="60" height="30" as="geometry"/>
                </mxCell>
                <mxCell id="1bvX-3xgdaYKTKuJ127w-13" value="Output" style="whiteSpace=wrap;html=1;" parent="1" vertex="1">
                    <mxGeometry x="685" y="135" width="120" height="60" as="geometry"/>
                </mxCell>
                <mxCell id="1bvX-3xgdaYKTKuJ127w-14" style="edgeStyle=none;html=1;entryX=0;entryY=0.75;entryDx=0;entryDy=0;" parent="1" source="1bvX-3xgdaYKTKuJ127w-15" target="1bvX-3xgdaYKTKuJ127w-11" edge="1">
                    <mxGeometry relative="1" as="geometry"/>
                </mxCell>
                <mxCell id="1bvX-3xgdaYKTKuJ127w-15" value="Data/Input" style="rounded=0;whiteSpace=wrap;html=1;" parent="1" vertex="1">
                    <mxGeometry x="350" y="180" width="120" height="60" as="geometry"/>
                </mxCell>
                <mxCell id="1bvX-3xgdaYKTKuJ127w-16" value="Combining the two" style="text;html=1;align=center;verticalAlign=middle;whiteSpace=wrap;rounded=0;" parent="1" vertex="1">
                    <mxGeometry x="365" y="280" width="60" height="30" as="geometry"/>
                </mxCell>
                <mxCell id="1bvX-3xgdaYKTKuJ127w-17" value="Training" style="text;html=1;align=center;verticalAlign=middle;whiteSpace=wrap;rounded=0;" parent="1" vertex="1">
                    <mxGeometry x="110" y="270" width="60" height="30" as="geometry"/>
                </mxCell>
                <mxCell id="1bvX-3xgdaYKTKuJ127w-18" value="Test" style="text;html=1;align=center;verticalAlign=middle;whiteSpace=wrap;rounded=0;" parent="1" vertex="1">
                    <mxGeometry x="600" y="280" width="60" height="30" as="geometry"/>
                </mxCell>
            </root>
        </mxGraphModel>
    </diagram>
</mxfile>